<svg width="86" height="21" viewBox="0 0 86 21" fill="none" xmlns="http://www.w3.org/2000/svg">
<path d="M11.889 18C13.647 18 15.3656 17.5601 16.8274 16.736C18.2892 15.9119 19.4285 14.7406 20.1013 13.3701C20.7741 11.9997 20.9501 10.4917 20.6071 9.03683C20.2641 7.58197 19.4176 6.2456 18.1744 5.1967C16.9313 4.14781 15.3474 3.4335 13.6231 3.14411C11.8988 2.85472 10.1115 3.00325 8.4873 3.57091C6.86306 4.13856 5.47479 5.09986 4.49806 6.33323C3.52133 7.5666 3 9.01664 3 10.5" stroke="#F4FAFF" stroke-width="5" stroke-linecap="round"/>
<path d="M43.0025 18C47.9117 18 51.8914 14.6421 51.8914 10.5C51.8914 6.35786 47.9117 3 43.0025 3C38.0932 3 34.1135 6.35786 34.1135 10.5C34.1135 14.6421 38.0932 18 43.0025 18Z" stroke="#F4FAFF" stroke-width="5"/>
<path d="M83.0002 10.5C83.0002 11.9834 82.4788 13.4334 81.5021 14.6668C80.5254 15.9001 79.1371 16.8614 77.5129 17.4291C75.8886 17.9968 74.1013 18.1453 72.377 17.8559C70.6528 17.5665 69.0689 16.8522 67.8258 15.8033C66.5826 14.7544 65.736 13.418 65.393 11.9632C65.05 10.5083 65.2261 9.00032 65.8989 7.62987C66.5716 6.25943 67.711 5.08809 69.1728 4.26398C70.6345 3.43987 72.3531 3 74.1112 3" stroke="#F4FAFF" stroke-width="5" stroke-linecap="round"/>
</svg>
