<svg width="30" height="31" viewBox="0 0 30 31" fill="none" xmlns="http://www.w3.org/2000/svg">
<path d="M23.6748 21.695L30 28.0187L27.9103 30.1084L21.5866 23.7832C19.2336 25.6694 16.307 26.6953 13.2913 26.6911C5.95451 26.6911 0 20.7365 0 13.3997C0 6.06291 5.95451 0.108398 13.2913 0.108398C20.6281 0.108398 26.5827 6.06291 26.5827 13.3997C26.5869 16.4154 25.561 19.342 23.6748 21.695ZM20.7123 20.5992C22.5866 18.6718 23.6333 16.0882 23.629 13.3997C23.629 7.68889 19.0022 3.06203 13.2913 3.06203C7.58049 3.06203 2.95363 7.68889 2.95363 13.3997C2.95363 19.1106 7.58049 23.7374 13.2913 23.7374C15.9798 23.7417 18.5634 22.695 20.4908 20.8207L20.7123 20.5992Z" fill="#012F3C"/>
</svg>
