<svg width="68" height="92" viewBox="0 0 68 92" fill="none" xmlns="http://www.w3.org/2000/svg">
<path d="M30.2849 3.17592C30.1114 3.70004 29.718 4.13949 29.1911 4.3976C28.6643 4.65571 28.0472 4.71134 27.4757 4.55225C26.9041 4.39315 26.4249 4.03237 26.1434 3.54927C25.8619 3.06616 25.8012 2.50031 25.9747 1.97619C26.1482 1.45207 26.5417 1.01262 27.0685 0.754509C27.5954 0.496398 28.2124 0.44077 28.784 0.599863C29.3556 0.758957 29.8348 1.11974 30.1163 1.60284C30.3977 2.08595 30.4584 2.6518 30.2849 3.17592ZM28.0421 9.95143C27.8686 10.4756 27.4751 10.915 26.9483 11.1731C26.4214 11.4312 25.8044 11.4869 25.2328 11.3278C24.6612 11.1687 24.182 10.8079 23.9005 10.3248C23.6191 9.84168 23.5584 9.27583 23.7319 8.75171C23.9054 8.22759 24.2988 7.78814 24.8257 7.53002C25.3525 7.27191 25.9696 7.21629 26.5411 7.37538C27.1127 7.53447 27.5919 7.89526 27.8734 8.37836C28.1549 8.86146 28.2156 9.42732 28.0421 9.95143ZM22.99 18.1033C23.5615 18.2624 24.1786 18.2067 24.7054 17.9486C25.2323 17.6905 25.6257 17.2511 25.7992 16.727C25.9727 16.2028 25.912 15.637 25.6306 15.1539C25.3491 14.6708 24.8698 14.31 24.2983 14.1509C23.7267 13.9918 23.1096 14.0474 22.5828 14.3055C22.056 14.5637 21.6625 15.0031 21.489 15.5272C21.3155 16.0513 21.3762 16.6172 21.6577 17.1003C21.9392 17.5834 22.4184 17.9442 22.99 18.1033ZM37.6738 5.23259C37.5879 5.49211 37.4471 5.73357 37.2594 5.94319C37.0717 6.1528 36.8409 6.32647 36.58 6.45428C36.3191 6.58208 36.0334 6.66152 35.739 6.68805C35.4447 6.71459 35.1475 6.6877 34.8645 6.60892C34.5815 6.53015 34.3182 6.40103 34.0896 6.22894C33.861 6.05684 33.6716 5.84515 33.5323 5.60594C33.3929 5.36673 33.3063 5.10469 33.2773 4.83478C33.2484 4.56488 33.2777 4.29238 33.3636 4.03287C33.5371 3.50875 33.9305 3.06929 34.4574 2.81118C34.9842 2.55307 35.6013 2.49744 36.1729 2.65654C36.7444 2.81563 37.2237 3.17641 37.5051 3.65952C37.7866 4.14262 37.8473 4.70847 37.6738 5.23259ZM32.6217 13.3844C32.9047 13.4632 33.2018 13.4901 33.4962 13.4636C33.7905 13.437 34.0763 13.3576 34.3372 13.2298C34.598 13.102 34.8289 12.9283 35.0165 12.7187C35.2042 12.5091 35.345 12.2676 35.4309 12.0081C35.5168 11.7486 35.5462 11.4761 35.5172 11.2062C35.4883 10.9363 35.4017 10.6742 35.2623 10.435C35.1229 10.1958 34.9335 9.98413 34.7049 9.81204C34.4763 9.63995 34.213 9.51083 33.93 9.43205C33.3584 9.27296 32.7414 9.32859 32.2145 9.5867C31.6877 9.84481 31.2943 10.2843 31.1208 10.8084C30.9473 11.3325 31.0079 11.8984 31.2894 12.3815C31.5709 12.8646 32.0501 13.2253 32.6217 13.3844ZM33.1881 18.7836C33.1022 19.0431 32.9614 19.2846 32.7737 19.4942C32.586 19.7038 32.3552 19.8775 32.0943 20.0053C31.8334 20.1331 31.5477 20.2125 31.2533 20.2391C30.959 20.2656 30.6618 20.2387 30.3788 20.16C30.0958 20.0812 29.8325 19.9521 29.6039 19.78C29.3753 19.6079 29.1859 19.3962 29.0465 19.157C28.9072 18.9178 28.8205 18.6557 28.7916 18.3858C28.7627 18.1159 28.792 17.8434 28.8779 17.5839C29.0514 17.0598 29.4448 16.6203 29.9717 16.3622C30.4985 16.1041 31.1156 16.0485 31.6872 16.2076C32.2587 16.3667 32.738 16.7274 33.0194 17.2105C33.3009 17.6937 33.3616 18.2595 33.1881 18.7836ZM42.2534 8.6656C42.825 8.82469 43.442 8.76906 43.9689 8.51095C44.4957 8.25284 44.8892 7.81339 45.0627 7.28927C45.2361 6.76515 45.1755 6.1993 44.894 5.71619C44.6125 5.23309 44.1333 4.8723 43.5617 4.71321C42.9902 4.55412 42.3731 4.60975 41.8463 4.86786C41.3194 5.12597 40.926 5.56542 40.7525 6.08954C40.579 6.61366 40.6396 7.17951 40.9211 7.66261C41.2026 8.14572 41.6818 8.5065 42.2534 8.6656ZM42.8198 14.0648C42.6463 14.5889 42.2529 15.0284 41.726 15.2865C41.1992 15.5446 40.5821 15.6002 40.0105 15.4411C39.439 15.282 38.9597 14.9212 38.6783 14.4381C38.3968 13.955 38.3361 13.3892 38.5096 12.8651C38.6831 12.3409 39.0766 11.9015 39.6034 11.6434C40.1302 11.3853 40.7473 11.3296 41.3189 11.4887C41.8904 11.6478 42.3697 12.0086 42.6512 12.4917C42.9326 12.9748 42.9933 13.5407 42.8198 14.0648ZM37.7677 22.2166C38.3393 22.3757 38.9563 22.3201 39.4832 22.062C40.01 21.8039 40.4034 21.3644 40.5769 20.8403C40.7504 20.3162 40.6898 19.7503 40.4083 19.2672C40.1268 18.7841 39.6476 18.4233 39.076 18.2642C38.5045 18.1051 37.8874 18.1608 37.3605 18.4189C36.8337 18.677 36.4403 19.1165 36.2668 19.6406C36.0933 20.1647 36.1539 20.7305 36.4354 21.2136C36.7169 21.6968 37.1961 22.0575 37.7677 22.2166Z" fill="#F4FAFF"/>
<path d="M23.344 24.2003C23.1705 24.7245 22.7771 25.1639 22.2502 25.422C21.7234 25.6801 21.1063 25.7358 20.5347 25.5767C19.9632 25.4176 19.4839 25.0568 19.2025 24.5737C18.921 24.0906 18.8603 23.5247 19.0338 23.0006C19.2073 22.4765 19.6008 22.037 20.1276 21.7789C20.6544 21.5208 21.2715 21.4652 21.8431 21.6243C22.4146 21.7834 22.8939 22.1442 23.1754 22.6273C23.4568 23.1104 23.5175 23.6762 23.344 24.2003ZM21.1011 30.9758C20.9276 31.5 20.5342 31.9394 20.0074 32.1975C19.4805 32.4556 18.8635 32.5113 18.2919 32.3522C17.7203 32.1931 17.2411 31.8323 16.9596 31.3492C16.6781 30.8661 16.6175 30.3002 16.791 29.7761C16.9645 29.252 17.3579 28.8125 17.8847 28.5544C18.4116 28.2963 19.0287 28.2407 19.6002 28.3998C20.1718 28.5589 20.651 28.9197 20.9325 29.4028C21.214 29.8859 21.2746 30.4517 21.1011 30.9758ZM16.049 39.1277C16.6206 39.2868 17.2377 39.2312 17.7645 38.973C18.2913 38.7149 18.6848 38.2755 18.8583 37.7514C19.0318 37.2272 18.9711 36.6614 18.6896 36.1783C18.4082 35.6952 17.9289 35.3344 17.3574 35.1753C16.7858 35.0162 16.1687 35.0718 15.6419 35.33C15.1151 35.5881 14.7216 36.0275 14.5481 36.5516C14.3746 37.0758 14.4353 37.6416 14.7168 38.1247C14.9982 38.6078 15.4775 38.9686 16.049 39.1277ZM30.7329 26.257C30.647 26.5165 30.5062 26.758 30.3185 26.9676C30.1308 27.1772 29.9 27.3509 29.6391 27.4787C29.3782 27.6065 29.0925 27.6859 28.7981 27.7125C28.5038 27.739 28.2066 27.7121 27.9236 27.6333C27.6406 27.5546 27.3773 27.4254 27.1487 27.2533C26.9201 27.0813 26.7307 26.8696 26.5913 26.6304C26.452 26.3911 26.3653 26.1291 26.3364 25.8592C26.3075 25.5893 26.3368 25.3168 26.4227 25.0573C26.5962 24.5332 26.9896 24.0937 27.5165 23.8356C28.0433 23.5775 28.6604 23.5219 29.2319 23.681C29.8035 23.84 30.2827 24.2008 30.5642 24.6839C30.8457 25.167 30.9064 25.7329 30.7329 26.257ZM25.6808 34.4089C25.9638 34.4876 26.2609 34.5145 26.5553 34.488C26.8496 34.4614 27.1354 34.382 27.3962 34.2542C27.6571 34.1264 27.888 33.9527 28.0756 33.7431C28.2633 33.5335 28.4041 33.292 28.49 33.0325C28.5759 32.773 28.6052 32.5005 28.5763 32.2306C28.5474 31.9607 28.4607 31.6987 28.3214 31.4594C28.182 31.2202 27.9926 31.0085 27.764 30.8365C27.5354 30.6644 27.2721 30.5352 26.9891 30.4565C26.4175 30.2974 25.8004 30.353 25.2736 30.6111C24.7468 30.8692 24.3533 31.3087 24.1798 31.8328C24.0063 32.3569 24.067 32.9228 24.3485 33.4059C24.63 33.889 25.1092 34.2498 25.6808 34.4089ZM26.2472 39.808C26.1612 40.0676 26.0204 40.309 25.8328 40.5186C25.6451 40.7283 25.4142 40.9019 25.1534 41.0297C24.8925 41.1575 24.6068 41.237 24.3124 41.2635C24.0181 41.29 23.7209 41.2631 23.4379 41.1844C23.1549 41.1056 22.8916 40.9765 22.663 40.8044C22.4344 40.6323 22.245 40.4206 22.1056 40.1814C21.9663 39.9422 21.8796 39.6801 21.8507 39.4102C21.8218 39.1403 21.8511 38.8678 21.937 38.6083C22.1105 38.0842 22.5039 37.6447 23.0308 37.3866C23.5576 37.1285 24.1747 37.0729 24.7462 37.232C25.3178 37.3911 25.797 37.7519 26.0785 38.235C26.36 38.7181 26.4207 39.2839 26.2472 39.808ZM35.3125 29.69C35.884 29.8491 36.5011 29.7935 37.028 29.5354C37.5548 29.2773 37.9482 28.8378 38.1217 28.3137C38.2952 27.7896 38.2346 27.2237 37.9531 26.7406C37.6716 26.2575 37.1924 25.8967 36.6208 25.7376C36.0492 25.5785 35.4322 25.6342 34.9053 25.8923C34.3785 26.1504 33.9851 26.5898 33.8116 27.114C33.6381 27.6381 33.6987 28.2039 33.9802 28.687C34.2617 29.1701 34.7409 29.5309 35.3125 29.69ZM35.8789 35.0892C35.7054 35.6133 35.3119 36.0528 34.7851 36.3109C34.2583 36.569 33.6412 36.6246 33.0696 36.4655C32.4981 36.3064 32.0188 35.9456 31.7374 35.4625C31.4559 34.9794 31.3952 34.4136 31.5687 33.8895C31.7422 33.3654 32.1356 32.9259 32.6625 32.6678C33.1893 32.4097 33.8064 32.354 34.378 32.5131C34.9495 32.6722 35.4288 33.033 35.7102 33.5161C35.9917 33.9992 36.0524 34.5651 35.8789 35.0892ZM30.8268 43.241C31.3983 43.4001 32.0154 43.3445 32.5422 43.0864C33.0691 42.8283 33.4625 42.3888 33.636 41.8647C33.8095 41.3406 33.7489 40.7747 33.4674 40.2916C33.1859 39.8085 32.7067 39.4478 32.1351 39.2887C31.5635 39.1296 30.9465 39.1852 30.4196 39.4433C29.8928 39.7014 29.4993 40.1409 29.3259 40.665C29.1524 41.1891 29.213 41.755 29.4945 42.2381C29.776 42.7212 30.2552 43.0819 30.8268 43.241Z" fill="#F4FAFF"/>
<path d="M52.2473 9.30629C52.0738 9.83041 51.6804 10.2699 51.1535 10.528C50.6267 10.7861 50.0096 10.8417 49.4381 10.6826C48.8665 10.5235 48.3873 10.1627 48.1058 9.67964C47.8243 9.19653 47.7636 8.63068 47.9371 8.10656C48.1106 7.58244 48.5041 7.14299 49.0309 6.88488C49.5578 6.62677 50.1748 6.57114 50.7464 6.73023C51.318 6.88933 51.7972 7.25011 52.0787 7.73322C52.3601 8.21632 52.4208 8.78217 52.2473 9.30629ZM50.0045 16.0818C49.831 16.6059 49.4375 17.0454 48.9107 17.3035C48.3838 17.5616 47.7668 17.6172 47.1952 17.4581C46.6236 17.299 46.1444 16.9383 45.8629 16.4552C45.5815 15.972 45.5208 15.4062 45.6943 14.8821C45.8678 14.358 46.2612 13.9185 46.7881 13.6604C47.3149 13.4023 47.932 13.3467 48.5035 13.5057C49.0751 13.6648 49.5543 14.0256 49.8358 14.5087C50.1173 14.9918 50.178 15.5577 50.0045 16.0818ZM44.9524 24.2337C45.5239 24.3927 46.141 24.3371 46.6678 24.079C47.1947 23.8209 47.5881 23.3814 47.7616 22.8573C47.9351 22.3332 47.8744 21.7674 47.593 21.2842C47.3115 20.8011 46.8323 20.4404 46.2607 20.2813C45.6891 20.1222 45.072 20.1778 44.5452 20.4359C44.0184 20.694 43.6249 21.1335 43.4514 21.6576C43.2779 22.1817 43.3386 22.7476 43.6201 23.2307C43.9016 23.7138 44.3808 24.0746 44.9524 24.2337ZM59.6362 11.363C59.5503 11.6225 59.4095 11.8639 59.2218 12.0736C59.0341 12.2832 58.8033 12.4568 58.5424 12.5846C58.2815 12.7125 57.9958 12.7919 57.7014 12.8184C57.4071 12.845 57.1099 12.8181 56.8269 12.7393C56.5439 12.6605 56.2806 12.5314 56.052 12.3593C55.8234 12.1872 55.634 11.9755 55.4947 11.7363C55.3553 11.4971 55.2687 11.2351 55.2397 10.9652C55.2108 10.6952 55.2401 10.4228 55.326 10.1632C55.4995 9.63912 55.8929 9.19967 56.4198 8.94155C56.9466 8.68344 57.5637 8.62781 58.1353 8.78691C58.7068 8.946 59.1861 9.30679 59.4675 9.78989C59.749 10.273 59.8097 10.8388 59.6362 11.363ZM54.5841 19.5148C54.8671 19.5936 55.1642 19.6205 55.4586 19.5939C55.7529 19.5674 56.0387 19.488 56.2996 19.3602C56.5604 19.2324 56.7913 19.0587 56.9789 18.8491C57.1666 18.6395 57.3074 18.398 57.3933 18.1385C57.4792 17.879 57.5086 17.6065 57.4796 17.3366C57.4507 17.0667 57.3641 16.8046 57.2247 16.5654C57.0853 16.3262 56.8959 16.1145 56.6673 15.9424C56.4387 15.7703 56.1754 15.6412 55.8924 15.5624C55.3208 15.4033 54.7038 15.459 54.1769 15.7171C53.6501 15.9752 53.2567 16.4146 53.0832 16.9388C52.9097 17.4629 52.9703 18.0287 53.2518 18.5118C53.5333 18.9949 54.0125 19.3557 54.5841 19.5148ZM55.1505 24.914C55.0646 25.1735 54.9238 25.415 54.7361 25.6246C54.5484 25.8342 54.3176 26.0079 54.0567 26.1357C53.7958 26.2635 53.5101 26.3429 53.2157 26.3695C52.9214 26.396 52.6242 26.3691 52.3412 26.2903C52.0582 26.2115 51.7949 26.0824 51.5663 25.9103C51.3377 25.7382 51.1483 25.5266 51.0089 25.2873C50.8696 25.0481 50.7829 24.7861 50.754 24.5162C50.7251 24.2463 50.7544 23.9738 50.8403 23.7143C51.0138 23.1902 51.4072 22.7507 51.9341 22.4926C52.4609 22.2345 53.078 22.1788 53.6496 22.3379C54.2211 22.497 54.7004 22.8578 54.9818 23.3409C55.2633 23.824 55.324 24.3899 55.1505 24.914ZM64.2158 14.796C64.7874 14.9551 65.4044 14.8994 65.9313 14.6413C66.4581 14.3832 66.8516 13.9438 67.0251 13.4196C67.1986 12.8955 67.1379 12.3297 66.8564 11.8466C66.5749 11.3635 66.0957 11.0027 65.5241 10.8436C64.9526 10.6845 64.3355 10.7401 63.8087 10.9982C63.2818 11.2563 62.8884 11.6958 62.7149 12.2199C62.5414 12.744 62.602 13.3099 62.8835 13.793C63.165 14.2761 63.6442 14.6369 64.2158 14.796ZM64.7822 20.1952C64.6087 20.7193 64.2153 21.1587 63.6884 21.4168C63.1616 21.6749 62.5445 21.7306 61.9729 21.5715C61.4014 21.4124 60.9221 21.0516 60.6407 20.5685C60.3592 20.0854 60.2985 19.5195 60.472 18.9954C60.6455 18.4713 61.039 18.0319 61.5658 17.7737C62.0926 17.5156 62.7097 17.46 63.2813 17.6191C63.8528 17.7782 64.3321 18.139 64.6136 18.6221C64.895 19.1052 64.9557 19.671 64.7822 20.1952ZM59.7301 28.347C60.3017 28.5061 60.9187 28.4505 61.4456 28.1924C61.9724 27.9342 62.3658 27.4948 62.5393 26.9707C62.7128 26.4466 62.6522 25.8807 62.3707 25.3976C62.0892 24.9145 61.61 24.5537 61.0384 24.3946C60.4669 24.2355 59.8498 24.2911 59.3229 24.5493C58.7961 24.8074 58.4027 25.2468 58.2292 25.7709C58.0557 26.2951 58.1163 26.8609 58.3978 27.344C58.6793 27.8271 59.1585 28.1879 59.7301 28.347Z" fill="#F4FAFF"/>
<path d="M45.3069 30.3307C45.1334 30.8548 44.7399 31.2943 44.2131 31.5524C43.6863 31.8105 43.0692 31.8661 42.4976 31.707C41.9261 31.5479 41.4468 31.1872 41.1654 30.7041C40.8839 30.2209 40.8232 29.6551 40.9967 29.131C41.1702 28.6069 41.5637 28.1674 42.0905 27.9093C42.6173 27.6512 43.2344 27.5956 43.806 27.7546C44.3775 27.9137 44.8568 28.2745 45.1382 28.7576C45.4197 29.2407 45.4804 29.8066 45.3069 30.3307ZM43.064 37.1062C42.8905 37.6303 42.4971 38.0698 41.9703 38.3279C41.4434 38.586 40.8263 38.6416 40.2548 38.4825C39.6832 38.3235 39.204 37.9627 38.9225 37.4796C38.641 36.9965 38.5804 36.4306 38.7539 35.9065C38.9274 35.3824 39.3208 34.9429 39.8476 34.6848C40.3745 34.4267 40.9915 34.3711 41.5631 34.5302C42.1347 34.6893 42.6139 35.05 42.8954 35.5331C43.1769 36.0162 43.2375 36.5821 43.064 37.1062ZM38.0119 45.2581C38.5835 45.4172 39.2006 45.3615 39.7274 45.1034C40.2542 44.8453 40.6477 44.4059 40.8212 43.8817C40.9947 43.3576 40.934 42.7918 40.6525 42.3087C40.3711 41.8256 39.8918 41.4648 39.3203 41.3057C38.7487 41.1466 38.1316 41.2022 37.6048 41.4603C37.0779 41.7184 36.6845 42.1579 36.511 42.682C36.3375 43.2061 36.3982 43.772 36.6796 44.2551C36.9611 44.7382 37.4404 45.099 38.0119 45.2581ZM52.6958 32.3874C52.6098 32.6469 52.469 32.8884 52.2814 33.098C52.0937 33.3076 51.8628 33.4813 51.602 33.6091C51.3411 33.7369 51.0554 33.8163 50.761 33.8428C50.4667 33.8694 50.1695 33.8425 49.8865 33.7637C49.6035 33.6849 49.3402 33.5558 49.1116 33.3837C48.883 33.2116 48.6936 32.9999 48.5542 32.7607C48.4149 32.5215 48.3282 32.2595 48.2993 31.9896C48.2704 31.7197 48.2997 31.4472 48.3856 31.1877C48.5591 30.6635 48.9525 30.2241 49.4794 29.966C50.0062 29.7079 50.6233 29.6522 51.1948 29.8113C51.7664 29.9704 52.2456 30.3312 52.5271 30.8143C52.8086 31.2974 52.8693 31.8633 52.6958 32.3874ZM47.6436 40.5392C47.9267 40.618 48.2238 40.6449 48.5182 40.6184C48.8125 40.5918 49.0983 40.5124 49.3591 40.3846C49.62 40.2568 49.8508 40.0831 50.0385 39.8735C50.2262 39.6639 50.367 39.4224 50.4529 39.1629C50.5388 38.9034 50.5681 38.6309 50.5392 38.361C50.5103 38.0911 50.4236 37.829 50.2843 37.5898C50.1449 37.3506 49.9555 37.1389 49.7269 36.9668C49.4983 36.7947 49.235 36.6656 48.952 36.5868C48.3804 36.4277 47.7633 36.4834 47.2365 36.7415C46.7097 36.9996 46.3162 37.439 46.1427 37.9632C45.9692 38.4873 46.0299 39.0531 46.3114 39.5362C46.5928 40.0193 47.0721 40.3801 47.6436 40.5392ZM48.21 45.9384C48.1241 46.1979 47.9833 46.4394 47.7957 46.649C47.608 46.8586 47.3771 47.0323 47.1163 47.1601C46.8554 47.2879 46.5696 47.3673 46.2753 47.3939C45.981 47.4204 45.6838 47.3935 45.4008 47.3147C45.1178 47.236 44.8545 47.1068 44.6259 46.9348C44.3973 46.7627 44.2079 46.551 44.0685 46.3118C43.9291 46.0725 43.8425 45.8105 43.8136 45.5406C43.7846 45.2707 43.814 44.9982 43.8999 44.7387C44.0734 44.2146 44.4668 43.7751 44.9936 43.517C45.5205 43.2589 46.1376 43.2033 46.7091 43.3624C47.2807 43.5214 47.7599 43.8822 48.0414 44.3653C48.3229 44.8484 48.3835 45.4143 48.21 45.9384ZM57.2754 35.8204C57.8469 35.9795 58.464 35.9238 58.9908 35.6657C59.5177 35.4076 59.9111 34.9682 60.0846 34.4441C60.2581 33.9199 60.1975 33.3541 59.916 32.871C59.6345 32.3879 59.1553 32.0271 58.5837 31.868C58.0121 31.7089 57.3951 31.7645 56.8682 32.0226C56.3414 32.2808 55.9479 32.7202 55.7745 33.2443C55.601 33.7684 55.6616 34.3343 55.9431 34.8174C56.2246 35.3005 56.7038 35.6613 57.2754 35.8204ZM57.8418 41.2196C57.6683 41.7437 57.2748 42.1831 56.748 42.4413C56.2212 42.6994 55.6041 42.755 55.0325 42.5959C54.461 42.4368 53.9817 42.076 53.7002 41.5929C53.4188 41.1098 53.3581 40.544 53.5316 40.0198C53.7051 39.4957 54.0985 39.0563 54.6254 38.7982C55.1522 38.54 55.7693 38.4844 56.3408 38.6435C56.9124 38.8026 57.3916 39.1634 57.6731 39.6465C57.9546 40.1296 58.0153 40.6954 57.8418 41.2196ZM52.7897 49.3714C53.3612 49.5305 53.9783 49.4749 54.5051 49.2168C55.032 48.9587 55.4254 48.5192 55.5989 47.9951C55.7724 47.471 55.7117 46.9051 55.4303 46.422C55.1488 45.9389 54.6696 45.5781 54.098 45.419C53.5264 45.2599 52.9094 45.3156 52.3825 45.5737C51.8557 45.8318 51.4622 46.2712 51.2887 46.7954C51.1152 47.3195 51.1759 47.8853 51.4574 48.3684C51.7389 48.8515 52.2181 49.2123 52.7897 49.3714Z" fill="#F4FAFF"/>
<path d="M16.3909 45.2052C16.2174 45.7293 15.8239 46.1688 15.2971 46.4269C14.7703 46.685 14.1532 46.7406 13.5816 46.5815C13.0101 46.4225 12.5308 46.0617 12.2493 45.5786C11.9679 45.0955 11.9072 44.5296 12.0807 44.0055C12.2542 43.4814 12.6476 43.0419 13.1745 42.7838C13.7013 42.5257 14.3184 42.4701 14.8899 42.6292C15.4615 42.7883 15.9407 43.149 16.2222 43.6321C16.5037 44.1152 16.5644 44.6811 16.3909 45.2052ZM14.148 51.9807C13.9745 52.5048 13.5811 52.9443 13.0542 53.2024C12.5274 53.4605 11.9103 53.5162 11.3388 53.3571C10.7672 53.198 10.288 52.8372 10.0065 52.3541C9.72501 51.871 9.66435 51.3051 9.83784 50.781C10.0113 50.2569 10.4048 49.8174 10.9316 49.5593C11.4585 49.3012 12.0755 49.2456 12.6471 49.4047C13.2187 49.5638 13.6979 49.9246 13.9794 50.4077C14.2608 50.8908 14.3215 51.4566 14.148 51.9807ZM9.09591 60.1326C9.66747 60.2917 10.2845 60.236 10.8114 59.9779C11.3382 59.7198 11.7317 59.2804 11.9052 58.7562C12.0787 58.2321 12.018 57.6663 11.7365 57.1832C11.455 56.7001 10.9758 56.3393 10.4042 56.1802C9.83268 56.0211 9.2156 56.0767 8.68876 56.3348C8.16193 56.5929 7.76848 57.0324 7.59499 57.5565C7.42149 58.0806 7.48216 58.6465 7.76363 59.1296C8.04511 59.6127 8.52434 59.9735 9.09591 60.1326ZM23.7797 47.2619C23.6938 47.5214 23.553 47.7629 23.3654 47.9725C23.1777 48.1821 22.9468 48.3558 22.686 48.4836C22.4251 48.6114 22.1393 48.6908 21.845 48.7173C21.5507 48.7439 21.2535 48.717 20.9705 48.6382C20.6875 48.5594 20.4242 48.4303 20.1956 48.2582C19.967 48.0861 19.7776 47.8744 19.6382 47.6352C19.4988 47.396 19.4122 47.134 19.3833 46.8641C19.3543 46.5942 19.3837 46.3217 19.4696 46.0622C19.6431 45.538 20.0365 45.0986 20.5633 44.8405C21.0902 44.5824 21.7073 44.5267 22.2788 44.6858C22.8504 44.8449 23.3296 45.2057 23.6111 45.6888C23.8926 46.1719 23.9532 46.7378 23.7797 47.2619ZM18.7276 55.4137C19.0106 55.4925 19.3078 55.5194 19.6021 55.4929C19.8965 55.4663 20.1822 55.3869 20.4431 55.2591C20.704 55.1313 20.9348 54.9576 21.1225 54.748C21.3102 54.5384 21.451 54.2969 21.5369 54.0374C21.6228 53.7779 21.6521 53.5054 21.6232 53.2355C21.5942 52.9656 21.5076 52.7035 21.3682 52.4643C21.2289 52.2251 21.0395 52.0134 20.8109 51.8413C20.5823 51.6692 20.319 51.5401 20.036 51.4613C19.4644 51.3023 18.8473 51.3579 18.3205 51.616C17.7936 51.8741 17.4002 52.3136 17.2267 52.8377C17.0532 53.3618 17.1139 53.9276 17.3954 54.4108C17.6768 54.8939 18.1561 55.2546 18.7276 55.4137ZM19.294 60.8129C19.2081 61.0724 19.0673 61.3139 18.8796 61.5235C18.692 61.7331 18.4611 61.9068 18.2003 62.0346C17.9394 62.1624 17.6536 62.2418 17.3593 62.2684C17.0649 62.2949 16.7678 62.268 16.4848 62.1893C16.2018 62.1105 15.9384 61.9814 15.7099 61.8093C15.4813 61.6372 15.2919 61.4255 15.1525 61.1863C15.0131 60.9471 14.9265 60.685 14.8976 60.4151C14.8686 60.1452 14.898 59.8727 14.9839 59.6132C15.1574 59.0891 15.5508 58.6496 16.0776 58.3915C16.6045 58.1334 17.2215 58.0778 17.7931 58.2369C18.3647 58.396 18.8439 58.7567 19.1254 59.2398C19.4069 59.723 19.4675 60.2888 19.294 60.8129ZM28.3594 50.6949C28.9309 50.854 29.548 50.7984 30.0748 50.5402C30.6017 50.2821 30.9951 49.8427 31.1686 49.3186C31.3421 48.7944 31.2814 48.2286 31 47.7455C30.7185 47.2624 30.2393 46.9016 29.6677 46.7425C29.0961 46.5834 28.479 46.639 27.9522 46.8972C27.4254 47.1553 27.0319 47.5947 26.8584 48.1188C26.6849 48.643 26.7456 49.2088 27.0271 49.6919C27.3086 50.175 27.7878 50.5358 28.3594 50.6949ZM28.9258 56.0941C28.7523 56.6182 28.3588 57.0577 27.832 57.3158C27.3051 57.5739 26.6881 57.6295 26.1165 57.4704C25.5449 57.3113 25.0657 56.9505 24.7842 56.4674C24.5027 55.9843 24.4421 55.4185 24.6156 54.8944C24.7891 54.3702 25.1825 53.9308 25.7094 53.6727C26.2362 53.4146 26.8533 53.3589 27.4248 53.518C27.9964 53.6771 28.4756 54.0379 28.7571 54.521C29.0386 55.0041 29.0993 55.57 28.9258 56.0941ZM23.8736 64.2459C24.4452 64.405 25.0623 64.3494 25.5891 64.0913C26.116 63.8332 26.5094 63.3937 26.6829 62.8696C26.8564 62.3455 26.7957 61.7796 26.5143 61.2965C26.2328 60.8134 25.7535 60.4526 25.182 60.2935C24.6104 60.1344 23.9933 60.1901 23.4665 60.4482C22.9397 60.7063 22.5462 61.1458 22.3727 61.6699C22.1992 62.194 22.2599 62.7598 22.5414 63.2429C22.8228 63.726 23.3021 64.0868 23.8736 64.2459Z" fill="#F4FAFF"/>
<path d="M9.44995 66.2296C9.27646 66.7537 8.88301 67.1932 8.35618 67.4513C7.82934 67.7094 7.21226 67.7651 6.6407 67.606C6.06914 67.4469 5.5899 67.0861 5.30842 66.603C5.02695 66.1199 4.96628 65.554 5.13978 65.0299C5.31327 64.5058 5.70672 64.0663 6.23355 63.8082C6.76039 63.5501 7.37747 63.4945 7.94903 63.6536C8.5206 63.8127 8.99983 64.1735 9.28131 64.6566C9.56278 65.1397 9.62345 65.7055 9.44995 66.2296ZM7.2071 73.0051C7.0336 73.5293 6.64016 73.9687 6.11332 74.2268C5.58649 74.4849 4.96941 74.5406 4.39785 74.3815C3.82628 74.2224 3.34705 73.8616 3.06557 73.3785C2.78409 72.8954 2.72343 72.3295 2.89692 71.8054C3.07042 71.2813 3.46386 70.8418 3.9907 70.5837C4.51754 70.3256 5.13461 70.27 5.70618 70.4291C6.27774 70.5882 6.75698 70.949 7.03845 71.4321C7.31993 71.9152 7.38059 72.481 7.2071 73.0051ZM2.15499 81.157C2.72656 81.3161 3.34363 81.2605 3.87047 81.0023C4.39731 80.7442 4.79075 80.3048 4.96424 79.7807C5.13774 79.2565 5.07708 78.6907 4.7956 78.2076C4.51412 77.7245 4.03489 77.3637 3.46332 77.2046C2.89176 77.0455 2.27468 77.1011 1.74785 77.3593C1.22101 77.6174 0.827566 78.0568 0.65407 78.5809C0.480574 79.1051 0.541238 79.6709 0.822716 80.154C1.10419 80.6371 1.58343 80.9979 2.15499 81.157ZM16.8388 68.2863C16.7529 68.5458 16.6121 68.7873 16.4244 68.9969C16.2368 69.2065 16.0059 69.3802 15.745 69.508C15.4842 69.6358 15.1984 69.7152 14.9041 69.7418C14.6097 69.7683 14.3126 69.7414 14.0296 69.6626C13.7466 69.5839 13.4832 69.4547 13.2546 69.2826C13.0261 69.1106 12.8367 68.8989 12.6973 68.6597C12.5579 68.4204 12.4713 68.1584 12.4424 67.8885C12.4134 67.6186 12.4427 67.3461 12.5286 67.0866C12.7021 66.5625 13.0956 66.123 13.6224 65.8649C14.1493 65.6068 14.7663 65.5512 15.3379 65.7102C15.9095 65.8693 16.3887 66.2301 16.6702 66.7132C16.9517 67.1963 17.0123 67.7622 16.8388 68.2863ZM11.7867 76.4381C12.0697 76.5169 12.3669 76.5438 12.6612 76.5173C12.9556 76.4907 13.2413 76.4113 13.5022 76.2835C13.7631 76.1557 13.9939 75.982 14.1816 75.7724C14.3693 75.5628 14.5101 75.3213 14.596 75.0618C14.6819 74.8023 14.7112 74.5298 14.6823 74.2599C14.6533 73.99 14.5667 73.728 14.4273 73.4887C14.2879 73.2495 14.0986 73.0378 13.87 72.8658C13.6414 72.6937 13.3781 72.5645 13.095 72.4858C12.5235 72.3267 11.9064 72.3823 11.3796 72.6404C10.8527 72.8985 10.4593 73.338 10.2858 73.8621C10.1123 74.3862 10.173 74.9521 10.4544 75.4352C10.7359 75.9183 11.2152 76.2791 11.7867 76.4381ZM12.3531 81.8373C12.2672 82.0969 12.1264 82.3383 11.9387 82.5479C11.7511 82.7575 11.5202 82.9312 11.2593 83.059C10.9985 83.1868 10.7127 83.2663 10.4184 83.2928C10.124 83.3193 9.82687 83.2924 9.54386 83.2137C9.26085 83.1349 8.99753 83.0058 8.76894 82.8337C8.54035 82.6616 8.35096 82.4499 8.21158 82.2107C8.07221 81.9715 7.98558 81.7094 7.95665 81.4395C7.92771 81.1696 7.95703 80.8971 8.04294 80.6376C8.21643 80.1135 8.60988 79.674 9.13671 79.4159C9.66355 79.1578 10.2806 79.1022 10.8522 79.2613C11.4238 79.4204 11.903 79.7812 12.1845 80.2643C12.4659 80.7474 12.5266 81.3132 12.3531 81.8373ZM21.4184 71.7193C21.99 71.8784 22.6071 71.8228 23.1339 71.5647C23.6608 71.3065 24.0542 70.8671 24.2277 70.343C24.4012 69.8189 24.3405 69.253 24.059 68.7699C23.7776 68.2868 23.2983 67.926 22.7268 67.7669C22.1552 67.6078 21.5381 67.6635 21.0113 67.9216C20.4845 68.1797 20.091 68.6191 19.9175 69.1433C19.744 69.6674 19.8047 70.2332 20.0862 70.7163C20.3676 71.1994 20.8469 71.5602 21.4184 71.7193ZM21.9848 77.1185C21.8113 77.6426 21.4179 78.0821 20.8911 78.3402C20.3642 78.5983 19.7471 78.6539 19.1756 78.4948C18.604 78.3357 18.1248 77.9749 17.8433 77.4918C17.5618 77.0087 17.5012 76.4429 17.6747 75.9188C17.8482 75.3946 18.2416 74.9552 18.7684 74.6971C19.2953 74.439 19.9124 74.3833 20.4839 74.5424C21.0555 74.7015 21.5347 75.0623 21.8162 75.5454C22.0977 76.0285 22.1583 76.5944 21.9848 77.1185ZM16.9327 85.2703C17.5043 85.4294 18.1214 85.3738 18.6482 85.1157C19.175 84.8576 19.5685 84.4181 19.742 83.894C19.9155 83.3699 19.8548 82.804 19.5733 82.3209C19.2919 81.8378 18.8126 81.477 18.2411 81.318C17.6695 81.1589 17.0524 81.2145 16.5256 81.4726C15.9987 81.7307 15.6053 82.1702 15.4318 82.6943C15.2583 83.2184 15.319 83.7843 15.6005 84.2674C15.8819 84.7505 16.3612 85.1112 16.9327 85.2703Z" fill="#F4FAFF"/>
<path d="M38.3538 51.3346C38.1803 51.8587 37.7868 52.2982 37.26 52.5563C36.7331 52.8144 36.1161 52.87 35.5445 52.7109C34.9729 52.5518 34.4937 52.1911 34.2122 51.708C33.9308 51.2249 33.8701 50.659 34.0436 50.1349C34.2171 49.6108 34.6105 49.1713 35.1374 48.9132C35.6642 48.6551 36.2813 48.5995 36.8528 48.7586C37.4244 48.9176 37.9036 49.2784 38.1851 49.7615C38.4666 50.2446 38.5273 50.8105 38.3538 51.3346ZM36.1109 58.1101C35.9374 58.6342 35.544 59.0737 35.0171 59.3318C34.4903 59.5899 33.8732 59.6455 33.3017 59.4865C32.7301 59.3274 32.2509 58.9666 31.9694 58.4835C31.6879 58.0004 31.6272 57.4345 31.8007 56.9104C31.9742 56.3863 32.3677 55.9468 32.8945 55.6887C33.4213 55.4306 34.0384 55.375 34.61 55.5341C35.1816 55.6932 35.6608 56.0539 35.9423 56.5371C36.2237 57.0202 36.2844 57.586 36.1109 58.1101ZM31.0588 66.262C31.6304 66.4211 32.2474 66.3654 32.7743 66.1073C33.3011 65.8492 33.6946 65.4098 33.8681 64.8856C34.0415 64.3615 33.9809 63.7957 33.6994 63.3126C33.4179 62.8295 32.9387 62.4687 32.3671 62.3096C31.7956 62.1505 31.1785 62.2061 30.6517 62.4642C30.1248 62.7223 29.7314 63.1618 29.5579 63.6859C29.3844 64.21 29.445 64.7759 29.7265 65.259C30.008 65.7421 30.4872 66.1029 31.0588 66.262ZM45.7426 53.3913C45.6567 53.6508 45.5159 53.8923 45.3282 54.1019C45.1406 54.3115 44.9097 54.4852 44.6489 54.613C44.388 54.7408 44.1022 54.8202 43.8079 54.8467C43.5135 54.8733 43.2164 54.8464 42.9334 54.7676C42.6504 54.6888 42.387 54.5597 42.1585 54.3876C41.9299 54.2155 41.7405 54.0038 41.6011 53.7646C41.4617 53.5254 41.3751 53.2634 41.3462 52.9935C41.3172 52.7236 41.3466 52.4511 41.4325 52.1916C41.606 51.6674 41.9994 51.228 42.5262 50.9699C43.0531 50.7118 43.6701 50.6561 44.2417 50.8152C44.8133 50.9743 45.2925 51.3351 45.574 51.8182C45.8555 52.3013 45.9161 52.8672 45.7426 53.3913ZM40.6905 61.5431C40.9735 61.6219 41.2707 61.6488 41.565 61.6223C41.8594 61.5957 42.1451 61.5163 42.406 61.3885C42.6669 61.2607 42.8977 61.087 43.0854 60.8774C43.2731 60.6678 43.4139 60.4263 43.4998 60.1668C43.5857 59.9073 43.615 59.6348 43.5861 59.3649C43.5571 59.095 43.4705 58.8329 43.3311 58.5937C43.1918 58.3545 43.0024 58.1428 42.7738 57.9707C42.5452 57.7986 42.2819 57.6695 41.9989 57.5907C41.4273 57.4317 40.8102 57.4873 40.2834 57.7454C39.7565 58.0035 39.3631 58.443 39.1896 58.9671C39.0161 59.4912 39.0768 60.057 39.3582 60.5401C39.6397 61.0233 40.119 61.384 40.6905 61.5431ZM41.2569 66.9423C41.171 67.2018 41.0302 67.4433 40.8425 67.6529C40.6549 67.8625 40.424 68.0362 40.1631 68.164C39.9023 68.2918 39.6165 68.3712 39.3222 68.3978C39.0278 68.4243 38.7307 68.3974 38.4477 68.3186C38.1647 68.2399 37.9013 68.1107 37.6727 67.9387C37.4442 67.7666 37.2548 67.5549 37.1154 67.3157C36.976 67.0765 36.8894 66.8144 36.8605 66.5445C36.8315 66.2746 36.8608 66.0021 36.9467 65.7426C37.1202 65.2185 37.5137 64.779 38.0405 64.5209C38.5674 64.2628 39.1844 64.2072 39.756 64.3663C40.3276 64.5254 40.8068 64.8861 41.0883 65.3692C41.3698 65.8523 41.4304 66.4182 41.2569 66.9423ZM50.3222 56.8243C50.8938 56.9834 51.5109 56.9278 52.0377 56.6696C52.5646 56.4115 52.958 55.9721 53.1315 55.448C53.305 54.9238 53.2443 54.358 52.9629 53.8749C52.6814 53.3918 52.2021 53.031 51.6306 52.8719C51.059 52.7128 50.4419 52.7684 49.9151 53.0265C49.3883 53.2847 48.9948 53.7241 48.8213 54.2482C48.6478 54.7724 48.7085 55.3382 48.99 55.8213C49.2714 56.3044 49.7507 56.6652 50.3222 56.8243ZM50.8886 62.2235C50.7151 62.7476 50.3217 63.187 49.7949 63.4452C49.268 63.7033 48.651 63.7589 48.0794 63.5998C47.5078 63.4407 47.0286 63.0799 46.7471 62.5968C46.4656 62.1137 46.405 61.5479 46.5785 61.0237C46.752 60.4996 47.1454 60.0602 47.6722 59.8021C48.1991 59.544 48.8162 59.4883 49.3877 59.6474C49.9593 59.8065 50.4385 60.1673 50.72 60.6504C51.0015 61.1335 51.0621 61.6994 50.8886 62.2235ZM45.8365 70.3753C46.4081 70.5344 47.0252 70.4788 47.552 70.2207C48.0789 69.9626 48.4723 69.5231 48.6458 68.999C48.8193 68.4749 48.7586 67.909 48.4771 67.4259C48.1957 66.9428 47.7164 66.582 47.1449 66.4229C46.5733 66.2638 45.9562 66.3195 45.4294 66.5776C44.9026 66.8357 44.5091 67.2751 44.3356 67.7993C44.1621 68.3234 44.2228 68.8892 44.5043 69.3723C44.7857 69.8554 45.265 70.2162 45.8365 70.3753Z" fill="#F4FAFF"/>
<path d="M31.4124 72.359C31.2389 72.8831 30.8454 73.3226 30.3186 73.5807C29.7917 73.8388 29.1747 73.8944 28.6031 73.7354C28.0315 73.5763 27.5523 73.2155 27.2708 72.7324C26.9893 72.2493 26.9287 71.6834 27.1022 71.1593C27.2757 70.6352 27.6691 70.1957 28.196 69.9376C28.7228 69.6795 29.3399 69.6239 29.9114 69.783C30.483 69.9421 30.9622 70.3028 31.2437 70.7859C31.5252 71.2691 31.5859 71.8349 31.4124 72.359ZM29.1695 79.1345C28.996 79.6587 28.6026 80.0981 28.0757 80.3562C27.5489 80.6143 26.9318 80.67 26.3602 80.5109C25.7887 80.3518 25.3094 79.991 25.028 79.5079C24.7465 79.0248 24.6858 78.4589 24.8593 77.9348C25.0328 77.4107 25.4263 76.9712 25.9531 76.7131C26.4799 76.455 27.097 76.3994 27.6686 76.5585C28.2401 76.7176 28.7194 77.0784 29.0009 77.5615C29.2823 78.0446 29.343 78.6104 29.1695 79.1345ZM24.1174 87.2864C24.689 87.4455 25.306 87.3899 25.8329 87.1317C26.3597 86.8736 26.7532 86.4342 26.9266 85.9101C27.1001 85.3859 27.0395 84.8201 26.758 84.337C26.4765 83.8539 25.9973 83.4931 25.4257 83.334C24.8542 83.1749 24.2371 83.2305 23.7102 83.4886C23.1834 83.7468 22.79 84.1862 22.6165 84.7103C22.443 85.2344 22.5036 85.8003 22.7851 86.2834C23.0666 86.7665 23.5458 87.1273 24.1174 87.2864ZM38.8012 74.4157C38.7153 74.6752 38.5745 74.9167 38.3868 75.1263C38.1992 75.3359 37.9683 75.5096 37.7074 75.6374C37.4466 75.7652 37.1608 75.8446 36.8665 75.8712C36.5721 75.8977 36.275 75.8708 35.992 75.792C35.709 75.7133 35.4456 75.5841 35.2171 75.412C34.9885 75.2399 34.7991 75.0283 34.6597 74.789C34.5203 74.5498 34.4337 74.2878 34.4048 74.0179C34.3758 73.748 34.4051 73.4755 34.4911 73.216C34.6645 72.6919 35.058 72.2524 35.5848 71.9943C36.1117 71.7362 36.7287 71.6805 37.3003 71.8396C37.8719 71.9987 38.3511 72.3595 38.6326 72.8426C38.9141 73.3257 38.9747 73.8916 38.8012 74.4157ZM33.7491 82.5675C34.0321 82.6463 34.3293 82.6732 34.6236 82.6467C34.918 82.6201 35.2037 82.5407 35.4646 82.4129C35.7255 82.2851 35.9563 82.1114 36.144 81.9018C36.3317 81.6922 36.4725 81.4507 36.5584 81.1912C36.6443 80.9317 36.6736 80.6592 36.6447 80.3893C36.6157 80.1194 36.5291 79.8573 36.3897 79.6181C36.2504 79.3789 36.061 79.1672 35.8324 78.9951C35.6038 78.8231 35.3405 78.6939 35.0574 78.6152C34.4859 78.4561 33.8688 78.5117 33.342 78.7698C32.8151 79.0279 32.4217 79.4674 32.2482 79.9915C32.0747 80.5156 32.1354 81.0815 32.4168 81.5646C32.6983 82.0477 33.1776 82.4084 33.7491 82.5675ZM34.3155 87.9667C34.2296 88.2262 34.0888 88.4677 33.9011 88.6773C33.7135 88.8869 33.4826 89.0606 33.2217 89.1884C32.9609 89.3162 32.6751 89.3957 32.3808 89.4222C32.0864 89.4487 31.7893 89.4218 31.5063 89.3431C31.2233 89.2643 30.9599 89.1352 30.7313 88.9631C30.5027 88.791 30.3134 88.5793 30.174 88.3401C30.0346 88.1009 29.948 87.8388 29.919 87.5689C29.8901 87.299 29.9194 87.0265 30.0053 86.767C30.1788 86.2429 30.5723 85.8034 31.0991 85.5453C31.626 85.2872 32.243 85.2316 32.8146 85.3907C33.3862 85.5498 33.8654 85.9106 34.1469 86.3937C34.4283 86.8768 34.489 87.4426 34.3155 87.9667ZM43.3808 77.8487C43.9524 78.0078 44.5695 77.9522 45.0963 77.6941C45.6232 77.4359 46.0166 76.9965 46.1901 76.4724C46.3636 75.9483 46.3029 75.3824 46.0214 74.8993C45.74 74.4162 45.2607 74.0554 44.6892 73.8963C44.1176 73.7372 43.5005 73.7929 42.9737 74.051C42.4469 74.3091 42.0534 74.7485 41.8799 75.2726C41.7064 75.7968 41.7671 76.3626 42.0486 76.8457C42.33 77.3288 42.8093 77.6896 43.3808 77.8487ZM43.9472 83.2479C43.7737 83.772 43.3803 84.2115 42.8535 84.4696C42.3266 84.7277 41.7095 84.7833 41.138 84.6242C40.5664 84.4651 40.0872 84.1043 39.8057 83.6212C39.5242 83.1381 39.4636 82.5723 39.6371 82.0482C39.8106 81.524 40.204 81.0846 40.7308 80.8265C41.2577 80.5684 41.8748 80.5127 42.4463 80.6718C43.0179 80.8309 43.4971 81.1917 43.7786 81.6748C44.0601 82.1579 44.1207 82.7238 43.9472 83.2479ZM38.8951 91.3997C39.4667 91.5588 40.0838 91.5032 40.6106 91.2451C41.1374 90.987 41.5309 90.5475 41.7044 90.0234C41.8779 89.4993 41.8172 88.9334 41.5357 88.4503C41.2543 87.9672 40.775 87.6064 40.2035 87.4473C39.6319 87.2883 39.0148 87.3439 38.488 87.602C37.9611 87.8601 37.5677 88.2996 37.3942 88.8237C37.2207 89.3478 37.2814 89.9136 37.5629 90.3968C37.8443 90.8799 38.3236 91.2406 38.8951 91.3997Z" fill="#F4FAFF"/>
</svg>
