<svg width="30" height="20" viewBox="0 0 30 20" fill="none" xmlns="http://www.w3.org/2000/svg">
<path d="M2.88717 17.841C3.54876 19.1642 4.90114 20 6.3805 20H8.97322C10.6854 20 11.7991 18.1981 11.0333 16.6667L10.463 15.5261C9.95932 14.5186 10.6919 13.3333 11.8182 13.3333C12.655 13.3333 13.3333 12.655 13.3333 11.8182V6.66667C13.3333 2.98477 10.3486 0 6.66667 0C2.98477 0 0 2.98477 0 6.66667V9.76214C0 11.2777 0.352854 12.7724 1.03062 14.1279L2.88717 17.841ZM6.8901 15.8469C7.07842 16.2235 6.80453 16.6667 6.38343 16.6667C6.16887 16.6667 5.97272 16.5454 5.87677 16.3535L4.01092 12.6218C3.56532 11.7306 3.33333 10.7479 3.33333 9.75153V6.66667C3.33333 4.82572 4.82572 3.33333 6.66667 3.33333C8.50762 3.33333 10 4.82572 10 6.66667V7.69547C10 8.96823 8.96745 10 7.6947 10C5.98248 10 4.86761 11.8019 5.63333 13.3333L6.8901 15.8469ZM19.5538 17.841C20.2154 19.1642 21.5678 20 23.0472 20H25.6399C27.3521 20 28.4657 18.1981 27.7 16.6667L27.1297 15.5261C26.626 14.5186 27.3585 13.3333 28.4849 13.3333C29.3217 13.3333 30 12.655 30 11.8182V6.66667C30 2.98477 27.0152 0 23.3333 0C19.6514 0 16.6667 2.98477 16.6667 6.66667V9.76214C16.6667 11.2777 17.0195 12.7724 17.6973 14.1279L19.5538 17.841ZM23.5568 15.8469C23.7451 16.2235 23.4712 16.6667 23.0501 16.6667C22.8355 16.6667 22.6394 16.5454 22.5434 16.3535L20.6776 12.6218C20.232 11.7306 20 10.7479 20 9.75153V6.66667C20 4.82572 21.4924 3.33333 23.3333 3.33333C25.1743 3.33333 26.6667 4.82572 26.6667 6.66667V7.69547C26.6667 8.96823 25.6341 10 24.3614 10C22.6491 10 21.5343 11.8019 22.3 13.3333L23.5568 15.8469Z" fill="#F4FAFF"/>
</svg>
